<svg xmlns="http://www.w3.org/2000/svg" viewBox="0 0 493.32 132.27"><defs><style>.cls-1{fill:#56bfca;}</style></defs><title>Horizontal Logo</title><g id="Layer_1" data-name="Layer 1"><g id="Shape_1" data-name="Shape 1"><path class="cls-1" d="M214.4,45.56l-1.76.14a19,19,0,0,0-3.28.83,16.62,16.62,0,0,0-9.9,10,18.49,18.49,0,0,0-.76,3.14,14.9,14.9,0,0,0,.67,7.34c1.83,4.74,4.54,8,9.1,10a21.06,21.06,0,0,0,3.79,1.15l1.5.14,1.7.06a29.34,29.34,0,0,0,4.38-.74,16.47,16.47,0,0,0,10.3-9.51,17.07,17.07,0,0,0,0-12.15C227.73,50.22,222.62,45.41,214.4,45.56ZM224.18,66a10,10,0,0,1-6.25,5.61,18.85,18.85,0,0,1-2.59.44,8.77,8.77,0,0,1-4.31-.82c-3.83-1.6-7.8-6.87-5.58-12.57a10.23,10.23,0,0,1,6.17-6.16l1.93-.47,1-.09a9.75,9.75,0,0,1,9.6,6.08A10.55,10.55,0,0,1,224.18,66ZM247.4,27.21a3.23,3.23,0,0,0-3.61-2.88l-.73.18a3.29,3.29,0,0,0-1.82,1.73,9.56,9.56,0,0,0-.3,3.38V72.83a13.24,13.24,0,0,0,.09,3.11,3.3,3.3,0,0,0,3.55,2.29,3.36,3.36,0,0,0,2.67-2.11A10.49,10.49,0,0,0,247.4,73ZM190.39,57a16.24,16.24,0,0,0-16.32-11.41l-1.38.11a21.79,21.79,0,0,0-2.7.59,16.36,16.36,0,0,0-8.51,6.08,18.61,18.61,0,0,0-3,7.42,18.1,18.1,0,0,0-.09,3.32v41.48c0,3.24-.35,5.66,2.17,6.46a3.44,3.44,0,0,0,2.12-.12c2.6-1.07,2-4.41,2-7.95V74.91h0a19.36,19.36,0,0,0,6,3,17.07,17.07,0,0,0,9.63-.5,16.08,16.08,0,0,0,10-10.54A15,15,0,0,0,191,60,26,26,0,0,0,190.39,57Zm-5.75,6.85a12.71,12.71,0,0,1-.71,2.26c-1.47,3.37-4.28,5.26-8.51,5.92a8.37,8.37,0,0,1-4.38-.7,10,10,0,0,1-6-6.61,15.11,15.11,0,0,1-.33-2.08,8.34,8.34,0,0,1,.5-4,10.21,10.21,0,0,1,5.9-6.11l1.94-.53,1-.11c5.21,0,8.32,2.39,9.89,6A10.34,10.34,0,0,1,184.64,63.88Zm309.68-18c-.92-.74-2.17-.87-3.9-.85l-1.35.12a21.65,21.65,0,0,0-2.85.64A16.31,16.31,0,0,0,481.93,48l-1.29,1c0-3.7-4.23-4.75-5.87-2-.76,1.28-.44,5.28-.44,7.36V71.3c0,3.59-.45,6.36,2.64,7a3.16,3.16,0,0,0,3.61-2.35,14.69,14.69,0,0,0,.09-3.34l0-7.08c-.16-2.53-.08-5.56.65-7.43a10.38,10.38,0,0,1,7.07-6.4c1.95-.53,4.69.16,6-1.08A3.3,3.3,0,0,0,494.32,45.91Zm-45.41-.32-1.12.09a19,19,0,0,0-2.41.49A15.13,15.13,0,0,0,438,51.08a17.93,17.93,0,0,0-3.2,6.07,16.65,16.65,0,0,0,5.55,17.67,16.39,16.39,0,0,0,13.32,2.91,15.81,15.81,0,0,0,6.11-2.93c1.15-.9,2.68-2,3-3.76a2.82,2.82,0,0,0-3.81-2.94c-.94.39-1.33,1.24-2.06,1.82a10.71,10.71,0,0,1-3.58,2,9.93,9.93,0,0,1-11.48-4.29,6.91,6.91,0,0,1-1.26-3.4l17.38,0c2.35,0,5.43.39,6.49-.94,1.41-1.79.14-6.08-.53-7.78C461.65,49.86,456.9,45.48,448.91,45.59ZM457,58.71H452.9l-12.39,0c-.23-.86.73-2.47,1.06-3a9,9,0,0,1,5.08-3.85l1.58-.35.82-.09c4.11,0,6.7,1.38,8.43,3.73a5.79,5.79,0,0,1,1.41,3.52A8.54,8.54,0,0,1,457,58.71ZM290.29,47.38a3.06,3.06,0,0,0-5.58.11c-.42,1-.23,3.23-.23,4.62v7.8a24.5,24.5,0,0,1-.06,4,10.64,10.64,0,0,1-4.9,7.68,9.47,9.47,0,0,1-5.76,1.47c-5.83-.93-8.61-4-9.54-9.8l0-11.72a17,17,0,0,0-.06-3.58,3,3,0,0,0-3.22-2.4l-.71.14a3.19,3.19,0,0,0-1.79,1.65c-.53,1.21-.23,4.09-.23,5.75v7.43a25.82,25.82,0,0,0,.61,7.31,15.76,15.76,0,0,0,10.8,10.74,16.6,16.6,0,0,0,8.08.35,17.65,17.65,0,0,0,4.64-1.85l1.82-1.32.2-.2a3.33,3.33,0,0,1,0,1.26,23.28,23.28,0,0,1-1.05,4.9,18.17,18.17,0,0,1-11.92,11.13,29,29,0,0,1-4.05.73c-1.11.18-2.4-.2-3.41.09a3.18,3.18,0,0,0-2.14,4.35c.5,1.17,1.52,1.59,3,1.85l1.62.08a7.37,7.37,0,0,0,2.2,0,35.54,35.54,0,0,0,4.4-.79,25.07,25.07,0,0,0,7.66-3.73c4.74-3.38,7.88-7.94,9.49-14.47a34.83,34.83,0,0,0,.44-7.69v-21C290.5,51,290.67,48.26,290.29,47.38ZM427.92,72.65q-5.82-7-11.63-13.94v-.09l9.52-8.13a3.38,3.38,0,0,0-.33-4.23c-2.32-1.9-3.84-.31-5.43.94l-6.49,5.4-2.2,1.85c-.26.2-.45.5-.79.62-.26-.25-.12-1.3-.12-1.76v-22c0-3.78.51-7.06-3.41-7l-.93.24a3.22,3.22,0,0,0-1.65,1.62,9.66,9.66,0,0,0-.23,3.19V73a12.87,12.87,0,0,0,.11,3.14,3.12,3.12,0,0,0,3.55,2.2,3.23,3.23,0,0,0,2.44-2,12,12,0,0,0,.18-3.56V65.37l0-3.37c0-.1,0-.08.15-.12l11.24,13.39c1.11,1.42,3.1,4.39,5.78,2.52a3.24,3.24,0,0,0,1.21-3.64A6.43,6.43,0,0,0,427.92,72.65Zm-75.8-14a15.17,15.17,0,0,0-.18-3.23c-1.36-6-6.34-10.56-13.82-10.45l-1,.09-2.2.47a12.25,12.25,0,0,0-6.4,4.52,5.8,5.8,0,0,0-.92,1.47h0a16.52,16.52,0,0,1-1-1.71,11.11,11.11,0,0,0-3.32-3,12,12,0,0,0-3-1.17A11.66,11.66,0,0,0,310,48.17a21.72,21.72,0,0,0-2,2.26l-.06-1.29a3.91,3.91,0,0,0-.62-2.47c-1.53-2.1-4.91-1.13-5.55,1.12a10,10,0,0,0-.09,2.29V74.33a6.35,6.35,0,0,0,.12,2,3.33,3.33,0,0,0,2.5,1.94A3.43,3.43,0,0,0,308,75.91a9,9,0,0,0,.09-2.35v-12a18.92,18.92,0,0,1,.12-3.73,7.59,7.59,0,0,1,3.76-5.17,7.47,7.47,0,0,1,4.7-1,10.16,10.16,0,0,1,2.43.65A7.37,7.37,0,0,1,323.23,57a18.76,18.76,0,0,1,.26,4.73v8.43c0,3.39-.48,6.3,1.71,7.63a2.93,2.93,0,0,0,2,.47c2.75-.44,3-2.12,3-5.28V61.41a17.74,17.74,0,0,1,.2-4.14,7.63,7.63,0,0,1,3.73-4.7,7.24,7.24,0,0,1,4.61-1c3.49.54,5.84,2.47,6.69,5.63a18.69,18.69,0,0,1,.24,4.46V73.94a6.94,6.94,0,0,0,.15,2.24,3.27,3.27,0,0,0,1.94,1.88,3.48,3.48,0,0,0,2.34,0c2.35-.94,2.06-3,2.06-6.19Zm41.18.5c-1.68-7.66-7.39-13.7-16.85-13.53l-1.58.14a18.38,18.38,0,0,0-3.23.8,16.4,16.4,0,0,0-9.78,9.57,17.77,17.77,0,0,0-.17,11.24A16.48,16.48,0,0,0,372,77.52a17.17,17.17,0,0,0,8.9.42,18.63,18.63,0,0,0,6.4-3.17c-.05,3.54,4.09,4.71,5.75,2.08.54-.85.47-2.21.47-3.64V66.14C393.51,63.83,393.74,61.11,393.3,59.12Zm-6.89,6.93A10.14,10.14,0,0,1,380,71.86a16.17,16.17,0,0,1-2.23.38,8.25,8.25,0,0,1-4.43-.82c-3.93-1.69-7.82-7-5.55-12.89a10.26,10.26,0,0,1,6.13-6.16l1.94-.47.94-.09a9.77,9.77,0,0,1,9.66,6.28A11,11,0,0,1,386.41,66.05Z" transform="translate(-2 -1.62)"/></g><path class="cls-1" d="M107.47,14.87a62,62,0,0,0-21-10.62l-.63-.18-1.56-.42A63.26,63.26,0,0,0,61.85,2c-1,.1-1.91.23-2.87.37A66.13,66.13,0,0,0,9.53,37.19C9,38.11,8.57,39,8.12,40c-.23.49-.45,1-.67,1.47s-.33.76-.48,1.15c-.08.18-.16.35-.23.54,0,0-4.9,9.43-4.74,24.4v.22A65.81,65.81,0,0,0,7.43,94l.35.9A50.71,50.71,0,0,0,15,107.2a66.62,66.62,0,0,0,19.74,17.66c1.46.85,3,1.66,4.49,2.41,1.94.6,5.49.91,6.74-4.22V69.35S45.28,56,55.42,49.92a18.73,18.73,0,0,1,3.91-2.17A22,22,0,0,1,86,55.31s.44.93.87.81c.16,0,.31-.21.44-.6,0,0,3.89-9.63,16.05-13.9,0,0,11.5-3.91,22.71,2.49a30.52,30.52,0,0,1,3.56,2.55l.63.58s.3.4.54.14C130.84,47.38,124.57,26.81,107.47,14.87Z" transform="translate(-2 -1.62)"/><path class="cls-1" d="M133.83,65.16c-1.9-16.73-18.1-19.07-18.1-19.07A22.83,22.83,0,0,0,97.91,51c-5.73,4-7.31,10.61-7.74,14.39A20.28,20.28,0,0,0,90,68.31c.12,6.7-4.69,13.11-4.69,13.11A23.09,23.09,0,0,1,72,89.49a17,17,0,0,1-4.3.33c-9.37.23-15.45-6.64-15.45-6.64-.27-.3-.37,0-.37,0l.18,38.37a14.79,14.79,0,0,1-3.32,8.77c-.37.25-.41.43-.33.58s.83.37.83.37a64.79,64.79,0,0,0,18.54,2.6h.78q.5,0,1,0c1.25,0,2.46-.11,3.65-.21a64.87,64.87,0,0,0,12-2c1.34-.34,2.56-.7,3.64-1,.63-.21,1.26-.41,1.89-.64l.18-.06c1.29-.46,2.28-.87,2.92-1.15l.14-.06.55-.25.2-.09c28.13-12.9,36-39.67,36-39.67A61.34,61.34,0,0,0,133.83,65.16Z" transform="translate(-2 -1.62)"/></g></svg>